<svg width="1080" height="1080" viewBox="0 0 1080 1080" fill="none" xmlns="http://www.w3.org/2000/svg">
<g clip-path="url(#clip0_161_724)">
<rect width="1080" height="1080" fill="white"/>
<rect width="1080" height="1080" fill="url(#paint0_linear_161_724)"/>
<path d="M238.757 768.859V751.976H255.58V744.207H238.696V733.502H257.659V725.489H230.254V768.859H238.757ZM291.997 768.859H301.418L292.12 751.12C297.809 749.468 301.357 744.88 301.357 738.824C301.357 731.3 295.974 725.489 287.532 725.489H270.587V768.859H279.09V752.159H283.495L291.997 768.859ZM279.09 744.88V732.829H285.941C290.223 732.829 292.732 735.215 292.732 738.885C292.732 742.433 290.223 744.88 285.941 744.88H279.09ZM341.784 768.859V760.907H323.066V750.875H340.01V743.351H323.066V733.441H341.784V725.489H314.624V768.859H341.784ZM382.714 768.859V760.907H363.996V750.875H380.94V743.351H363.996V733.441H382.714V725.489H355.554V768.859H382.714ZM464.893 768.859V725.489H453.393L440.669 756.809L427.639 725.489H416.506V768.859H424.581V738.702L437.06 768.859H444.095L456.574 738.457V768.859H464.893ZM486.733 747.143C486.733 737.356 493.585 732.707 500.252 732.707C506.981 732.707 513.832 737.356 513.832 747.143C513.832 756.931 506.981 761.58 500.252 761.58C493.585 761.58 486.733 756.931 486.733 747.143ZM477.986 747.205C477.986 761.152 488.507 769.777 500.252 769.777C512.059 769.777 522.58 761.152 522.58 747.205C522.58 733.196 512.059 724.571 500.252 724.571C488.507 724.571 477.986 733.196 477.986 747.205ZM550.18 757.726L538.863 725.489H529.626L545.653 768.859H554.339L570.427 725.489H561.496L550.18 757.726ZM590.275 768.859V725.489H581.711V768.859H590.275ZM633.075 768.859V760.907H614.356V750.875H631.301V743.351H614.356V733.441H633.075V725.489H605.914V768.859H633.075ZM676.085 735.827C675.106 730.933 671.069 724.571 660.547 724.571C652.35 724.571 645.438 730.443 645.438 738.151C645.438 744.696 649.903 749.162 656.815 750.569L662.872 751.792C666.236 752.465 668.132 754.423 668.132 756.931C668.132 759.989 665.624 762.253 661.098 762.253C654.98 762.253 651.983 758.399 651.616 754.117L643.786 756.197C644.459 762.375 649.536 769.777 661.036 769.777C671.13 769.777 676.696 763.048 676.696 756.38C676.696 750.263 672.475 745.125 664.584 743.595L658.528 742.433C655.347 741.821 653.818 739.925 653.818 737.539C653.818 734.664 656.51 732.034 660.608 732.034C666.114 732.034 668.071 735.765 668.499 738.151L676.085 735.827ZM736.5 768.859H747.022L737.234 758.644L743.29 752.282V742.127L732.34 753.566L725.795 746.654L727.447 745.431C730.566 743.106 733.564 739.925 733.564 735.521C733.564 729.036 728.425 724.571 721.513 724.571C715.64 724.571 709.523 728.608 709.523 735.888C709.523 739.803 712.215 743.106 714.295 745.308L714.968 746.042L714.662 746.226C710.135 749.59 707.26 752.71 707.26 758.093C707.26 763.904 711.909 769.716 720.412 769.716C725.061 769.716 728.792 767.514 732.035 764.21L736.5 768.859ZM720.534 762.62C717.353 762.62 715.335 760.112 715.335 757.604C715.335 755.035 716.742 753.383 718.821 751.854L719.739 751.181L727.141 759.011C725.061 761.213 723.165 762.62 720.534 762.62ZM717.231 735.643C717.231 732.707 719.433 731.3 721.452 731.3C724.021 731.3 725.856 733.135 725.856 735.46C725.856 737.05 725.122 738.579 723.103 740.047L720.962 741.638L719.8 740.353C718.699 739.252 717.231 737.478 717.231 735.643ZM808.264 733.502V725.489H772.356V733.502H786.059V768.859H794.562V733.502H808.264ZM835.984 757.726L824.667 725.489H815.43L831.457 768.859H840.143L856.231 725.489H847.3L835.984 757.726Z" fill="#FDB613"/>
<path d="M269.825 388.161C237.358 388.161 216.172 397.619 198.135 419.679V395.365H135V695.205C135 695.205 136.282 695.807 139.295 696.451C143.972 697.451 167.043 702.765 184.291 688.044C199.213 675.298 202.642 660.543 202.642 643.559V600.219C220.679 619.576 241.424 627.686 270.284 627.686C332.51 627.686 380.307 577.261 380.307 510.174C380.307 438.595 334.31 388.17 269.825 388.17V388.161ZM257.526 571.252C222.81 571.252 195.045 542.539 195.045 507.385C195.045 472.232 227.546 445.494 257.526 445.494C292.735 445.494 320.007 472.732 320.007 507.877C320.007 543.022 292.735 571.252 257.526 571.252Z" fill="white"/>
<path d="M470.069 503.665C470.069 529.624 472.946 561.125 498.58 595.575C499.081 596.244 500.482 597.931 500.482 597.931C490.118 615.694 477.063 627.644 459.959 627.644C446.463 627.644 433.29 620.516 422.314 608.092C410.584 594.812 404.982 577.473 404.982 559.421V318.514H470.086L470.06 503.665H470.069Z" fill="white"/>
<path d="M790.716 620.491H712.405L788.416 507.988L712.405 395.391H790.716L866.719 507.988L790.716 620.491Z" fill="#EBAF00"/>
<path d="M887.608 495.233L955.547 395.391H876.93L848.291 436.994L887.608 495.233Z" fill="white"/>
<path d="M848.291 579.396C848.308 579.447 861.617 597.931 861.617 597.931C874.468 618.05 890.952 627.61 910.602 627.686C930.982 627.322 945.497 609.287 950.819 602.965C950.819 602.957 940.761 594.117 928.3 579.346C911.332 559.226 888.474 522.674 887.608 521.106L848.3 579.405L848.291 579.396Z" fill="white"/>
<path d="M653.879 555.752C640.782 567.811 631.852 574.795 613.238 574.795C580.253 574.795 561.766 551.811 559.058 526.149H732.734C733.829 522.64 734.542 518.276 734.542 511.064C734.542 440.833 683.129 388.153 615.496 388.153C547.862 388.153 498.258 441.731 498.258 508.809C498.258 575.888 551.011 627.669 616.854 627.669C662.825 627.669 702.516 601.406 724.339 555.743H653.887L653.879 555.752ZM615.92 441.333C644.678 441.333 666.195 460.274 671.152 485.029H561.189C567.139 458.791 587.162 441.333 615.929 441.333H615.92Z" fill="white"/>
</g>
<defs>
<linearGradient id="paint0_linear_161_724" x1="493.594" y1="603.281" x2="1080" y2="5.22461e-05" gradientUnits="userSpaceOnUse">
<stop/>
<stop offset="1" stop-color="#282A2D"/>
</linearGradient>
<clipPath id="clip0_161_724">
<rect width="1080" height="1080" fill="white"/>
</clipPath>
</defs>
</svg>
